# xmcd
#
# Track frame offsets: 
#        150
#        13511
#        26043
#        40880
#        53201
#        66581
#        82213
#        92974
#        105346
#        118504
#        136518
#        148740
#
# Disc length: 2165 seconds
#
# Revision: 0
# Processed by: cddbd v1.5.2PL0 Copyright (c) Steve Scherf et al.
# Submitted via: ExactAudioCopy v0.99pb4
#
DISCID=a408730c
DTITLE=Various Artist - Private Performances: Paradise Tonight
DYEAR=1900
DGENRE=Country
TTITLE0=B.J. Thomas - New Looks From an Old Lover
TTITLE1=Fifty Guitars - Southern Nights
TTITLE2=Lynn Anderson - I Love How You Love Me
TTITLE3=Tammy Wynette and George Jones - Two Story House
TTITLE4=Mickey Gilley - True Love Ways
TTITLE5=Janie Fricke - A Little More
TTITLE6=Flatt and Scruggs - Foggy Mountain Breakdown
TTITLE7=Ronnie McDowell - Watching Girls Go By
TTITLE8=Crystal Gayle - I Wanna Come Back to You
TTITLE9=Don Williams - Only Love
TTITLE10=Charlie Rich - Most Beautiful Girl
TTITLE11=Charly McClain and Mickey Gilley - Paradise Tonight
EXTD=
EXTT0=
EXTT1=
EXTT2=
EXTT3=
EXTT4=
EXTT5=
EXTT6=
EXTT7=
EXTT8=
EXTT9=
EXTT10=
EXTT11=
PLAYORDER=
